<svg xmlns="http://www.w3.org/2000/svg" width="161.6" height="150.163" viewBox="0 0 161.6 150.163">
  <g id="Group_7" data-name="Group 7" transform="translate(-708.784 -465.508)">
    <g id="Group_6" data-name="Group 6" transform="translate(524.784 382.508)">
      <g id="Group_5" data-name="Group 5">
        <g id="Group_3" data-name="Group 3">
          <path id="Path_29" data-name="Path 29" d="M264.908,233.163c-6.034,0-10.927-6.036-10.927-13.482V167.336c0-20.54-13.544-37.252-30.193-37.252H206.07v89.6c0,7.446-4.892,13.482-10.927,13.482s-10.927-6.036-10.927-13.482V103.122h39.572c28.7,0,52.046,28.807,52.046,64.214v52.345C275.834,227.127,270.941,233.163,264.908,233.163Z" fill="#fff"/>
          <path id="Path_30" data-name="Path 30" d="M257.892,118.532a64.307,64.307,0,0,0-11.126,24.893,36.385,36.385,0,0,1,7.487,22.193v50.1a12.4,12.4,0,1,0,24.779,0v-50.1A62.385,62.385,0,0,0,257.892,118.532Z" fill="#fff"/>
        </g>
        <g id="Group_4" data-name="Group 4">
          <path id="Path_31" data-name="Path 31" d="M334.673,233.163c-6.034,0-10.927-6.036-10.927-13.482v-89.6H306.029c-16.648,0-30.195,16.712-30.195,37.252v52.345c0,7.446-4.893,13.482-10.926,13.482s-10.927-6.036-10.927-13.482V167.336c0-35.407,23.349-64.214,52.048-64.214H345.6V219.681C345.6,227.127,340.707,233.163,334.673,233.163Z" fill="#fff"/>
        </g>
      </g>
      <path id="Path_32" data-name="Path 32" d="M283.135,132.711a39.117,39.117,0,0,0-13.141-5.181c-4.474-.98-9.009-1.682-13.491-2.629a46.161,46.161,0,0,1-15.252-5.659c-6.571-4.12-9.859-9.894-8.843-17.7a14.115,14.115,0,0,1,5.136-9.567c3.7-2.973,7.945-2.977,12.266-1.826a11.547,11.547,0,0,1,7.949,6.75c1.151,2.619,1.138,2.817-1.168,4.521a4.741,4.741,0,0,0-1.98,4.86,9.735,9.735,0,0,0,.716,2.667,33.687,33.687,0,0,0,6.064,8.5,3.214,3.214,0,0,0,.59.452,2.374,2.374,0,0,0,3.489-.418,7.4,7.4,0,0,0,1.358-2.4c.874-2.795,1.663-5.618,2.394-8.453a5.99,5.99,0,0,0,.062-2.387,4.388,4.388,0,0,0-2.458-3.7,3.882,3.882,0,0,1-2.459-2.8,14.922,14.922,0,0,0-.514-1.486c-3.334-9.09-10.174-13.34-19.248-12.7-7.945.563-13.863,4.644-17.953,11.328-2.57,4.2-2.847,8.874-2.592,13.606a18.154,18.154,0,0,0,8.153,14.593A64.676,64.676,0,0,0,248.543,131c5.984,2.035,12.055,3.822,18.067,5.781a30.24,30.24,0,0,1,8.256,3.869,9.45,9.45,0,0,1,4.346,8.524c-.071,1.693-.152,3.391-.359,5.071-.111.909-.27,1.793-.463,2.66a3.02,3.02,0,0,1,.121.856v18.449a33.427,33.427,0,0,0,13.758-26.01C292.381,142.771,289.5,136.847,283.135,132.711Z" fill="#fff"/>
      <path id="Path_33" data-name="Path 33" d="M300.523,192.238a39.813,39.813,0,0,0-5.325-1.089c-5.491-.763-10.79-.109-16.045.776v6c1.415-.1,2.833-.2,4.246-.179,1.851.026,3.554.455,4.179,1.754a3.578,3.578,0,0,1-1.456,5.027,15.683,15.683,0,0,1-4.663,2.1,50.7,50.7,0,0,1-24.478.156c-6.539-1.593-8.845-4.215-8.188-8.724a8.226,8.226,0,0,1,4.907-6.5V181.371a34.836,34.836,0,0,0-13.858,5.988c-9.954,7.243-7.307,18.635,5.342,23.659,15.879,6.306,38.145,5.694,52.87-1.729,3.827-1.93,7.045-4.188,8.49-7.3C308.441,197.9,305.915,193.766,300.523,192.238Z" fill="#fff"/>
      <path id="Path_34" data-name="Path 34" d="M244.273,208.162a22.179,22.179,0,0,0,3.339,2.248c1.305.56,1.751,1.454,1.951,3.237.7,6.251,3.476,9.5,8.534,10.448,2.374.447,4.751.876,7.113,1.411a10.31,10.31,0,0,1,4.514,2.245,4.809,4.809,0,0,1,1.769,2.9,1.636,1.636,0,0,1-.135,1.089c-.212.2-.616.144-.919.071a1.229,1.229,0,0,1-.615-.489,4.306,4.306,0,0,0-3.236-1.748c-3.536-.47-7.082-.877-10.6-1.561a15.5,15.5,0,0,1-9.184-5.3,12.1,12.1,0,0,1-2.855-8.239C243.982,212.4,244.159,210.323,244.273,208.162Z" fill="#fff"/>
      <path id="Path_35" data-name="Path 35" d="M253.851,195.245a9.446,9.446,0,0,0-1.811,1.067,11.828,11.828,0,0,0-4.421,6.879c-.088.369-.163.74-.244,1.11.951.387,1.917.737,2.885,1.114.08.031.157.066.234.1.046-.2.093-.4.14-.6a7.188,7.188,0,0,1,3.217-4.754Z" fill="#fff"/>
    </g>
    <g id="Group_6-2" data-name="Group 6" transform="translate(524.568 382.016)">
      <g id="Group_5-2" data-name="Group 5">
        <g id="Group_3-2" data-name="Group 3">
          <path id="Path_29-2" data-name="Path 29" d="M264.908,233.163c-6.034,0-10.927-6.036-10.927-13.482V167.336c0-20.54-13.544-37.252-30.193-37.252H206.07v89.6c0,7.446-4.892,13.482-10.927,13.482s-10.927-6.036-10.927-13.482V103.122h39.572c28.7,0,52.046,28.807,52.046,64.214v52.345C275.834,227.127,270.941,233.163,264.908,233.163Z" fill="#2e3192"/>
          <path id="Path_30-2" data-name="Path 30" d="M257.892,118.532a64.307,64.307,0,0,0-11.126,24.893,36.385,36.385,0,0,1,7.487,22.193v50.1a12.4,12.4,0,1,0,24.779,0v-50.1a62.385,62.385,0,0,0-21.14-47.086Z" fill="#262262"/>
        </g>
        <g id="Group_4-2" data-name="Group 4">
          <path id="Path_31-2" data-name="Path 31" d="M334.673,233.163c-6.034,0-10.927-6.036-10.927-13.482v-89.6H306.029c-16.648,0-30.2,16.712-30.2,37.252v52.345c0,7.446-4.893,13.482-10.926,13.482s-10.927-6.036-10.927-13.482V167.336c0-35.407,23.349-64.214,52.048-64.214H345.6V219.681C345.6,227.127,340.707,233.163,334.673,233.163Z" fill="#ed1c24"/>
        </g>
      </g>
      <path id="Path_32-2" data-name="Path 32" d="M283.135,132.711a39.118,39.118,0,0,0-13.141-5.181c-4.474-.98-9.009-1.682-13.491-2.629a46.161,46.161,0,0,1-15.252-5.659c-6.571-4.12-9.859-9.894-8.843-17.7a14.115,14.115,0,0,1,5.136-9.567c3.7-2.973,7.945-2.977,12.266-1.826a11.547,11.547,0,0,1,7.949,6.75c1.151,2.619,1.138,2.817-1.168,4.521a4.741,4.741,0,0,0-1.98,4.86,9.734,9.734,0,0,0,.716,2.667,33.687,33.687,0,0,0,6.064,8.5,3.216,3.216,0,0,0,.59.452,2.374,2.374,0,0,0,3.489-.418,7.4,7.4,0,0,0,1.358-2.4c.874-2.795,1.663-5.618,2.394-8.453a5.99,5.99,0,0,0,.062-2.387,4.388,4.388,0,0,0-2.458-3.7,3.882,3.882,0,0,1-2.459-2.8,14.926,14.926,0,0,0-.514-1.486c-3.334-9.09-10.174-13.34-19.248-12.7-7.945.563-13.863,4.644-17.953,11.328-2.57,4.2-2.847,8.874-2.592,13.606a18.154,18.154,0,0,0,8.153,14.593A64.676,64.676,0,0,0,248.543,131c5.984,2.035,12.055,3.822,18.067,5.781a30.24,30.24,0,0,1,8.256,3.869,9.45,9.45,0,0,1,4.346,8.524c-.071,1.693-.152,3.391-.359,5.071-.111.909-.27,1.793-.463,2.66a3.019,3.019,0,0,1,.121.856V176.21a33.427,33.427,0,0,0,13.758-26.01C292.381,142.771,289.5,136.847,283.135,132.711Z" fill="#414042"/>
      <path id="Path_33-2" data-name="Path 33" d="M300.523,192.238a39.813,39.813,0,0,0-5.325-1.089c-5.491-.763-10.79-.109-16.045.776v6c1.415-.1,2.833-.2,4.246-.179,1.851.026,3.554.455,4.179,1.754a3.578,3.578,0,0,1-1.456,5.027,15.682,15.682,0,0,1-4.663,2.1,50.7,50.7,0,0,1-24.478.156c-6.539-1.593-8.845-4.215-8.188-8.724a8.226,8.226,0,0,1,4.907-6.5V181.371a34.836,34.836,0,0,0-13.858,5.988c-9.954,7.243-7.307,18.635,5.342,23.659,15.879,6.306,38.145,5.694,52.87-1.729,3.827-1.93,7.045-4.188,8.49-7.3C308.441,197.9,305.915,193.766,300.523,192.238Z" fill="#414042"/>
      <path id="Path_34-2" data-name="Path 34" d="M244.273,208.162a22.179,22.179,0,0,0,3.339,2.248c1.3.56,1.751,1.454,1.951,3.237.7,6.251,3.476,9.5,8.534,10.448,2.374.447,4.751.876,7.113,1.411a10.31,10.31,0,0,1,4.514,2.245,4.809,4.809,0,0,1,1.769,2.9,1.636,1.636,0,0,1-.135,1.089c-.212.2-.616.144-.919.071a1.229,1.229,0,0,1-.615-.489,4.306,4.306,0,0,0-3.236-1.748c-3.536-.47-7.082-.877-10.6-1.561a15.5,15.5,0,0,1-9.184-5.3,12.1,12.1,0,0,1-2.855-8.239C243.982,212.4,244.159,210.323,244.273,208.162Z" fill="#414042"/>
      <path id="Path_35-2" data-name="Path 35" d="M253.851,195.245a9.445,9.445,0,0,0-1.811,1.067,11.828,11.828,0,0,0-4.421,6.879c-.088.369-.163.74-.244,1.11.951.387,1.917.737,2.885,1.114.08.031.157.066.234.1q.069-.3.14-.6a7.188,7.188,0,0,1,3.217-4.754Z" fill="#414042"/>
    </g>
  </g>
</svg>
